<?xml version="1.0" encoding="utf-8"?>
<!-- Generator: Adobe Illustrator 24.0.0, SVG Export Plug-In . SVG Version: 6.00 Build 0)  -->
<svg version="1.1" id="Layer_1" xmlns="http://www.w3.org/2000/svg" xmlns:xlink="http://www.w3.org/1999/xlink" x="0px" y="0px"
	 viewBox="0 0 458.3 90.9" style="enable-background:new 0 0 458.3 90.9;" xml:space="preserve">
<style type="text/css">
	.st0{fill:#F15E3B;}
	.st1{fill:#FFFFFF;}
</style>
<g>
	<g>
		<g>
			<path class="st0" d="M87.2,90.9H3.4c-1.9,0-3.4-1.5-3.4-3.4V3.7c0-1.9,1.5-3.4,3.4-3.4h83.8c1.9,0,3.4,1.5,3.4,3.4v83.8
				C90.6,89.4,89.1,90.9,87.2,90.9z"/>
		</g>
		<g>
			<g>
				<path class="st1" d="M14,51c0.1-0.5,0.2-1,0.3-1.5c1.5-6.1,7.2-10,13.4-8.9c3.7,0.6,7.4,1.3,11.1,2c2.6,0.5,4.7,1.9,6.2,4.1
					c0.1,0.1,0.2,0.2,0.3,0.3c0.1-0.1,0.1-0.1,0.2-0.1c1.7-2.6,4.1-3.9,7.1-4.4c3.5-0.6,7.1-1.3,10.6-1.9c6.3-1.1,12.7,3.6,13.4,10
					c0.2,1.5,0.1,3,0.1,4.5c0,2.2,0,4.4,0,6.7c0,5.9-4,10.7-9.8,11.7c-6,1.1-12,2.2-18,3.3c-3.1,0.6-6.2,0.2-9.2-0.4
					c-5.2-1-10.5-2-15.7-2.9s-9.1-4.9-9.8-10.1c0-0.1-0.1-0.2-0.1-0.3C14,58.9,14,55,14,51z M44,74.3c0-1.1,0-2,0-2.8
					c0-6.6,0-13.2,0-19.8c0-3.1-2.2-5.8-5.3-6.4c-3.8-0.8-7.6-1.5-11.4-2.1c-5.7-0.9-10.6,3.2-10.7,9c0,3.2,0,6.4,0,9.5
					c0.1,4.7,3.2,8.3,7.8,9.1c5.3,0.9,10.5,1.9,15.7,2.9C41.4,73.9,42.6,74.1,44,74.3z M46.7,74.3c0.7-0.1,1.3-0.1,1.9-0.2
					c6-1.1,11.9-2.1,17.9-3.2c4.1-0.8,7.2-4,7.5-8.1c0.2-3.7,0.3-7.4,0-11.1c-0.4-5.6-5.1-9.2-10.7-8.4c-1.9,0.3-3.8,0.7-5.8,1
					c-1.6,0.3-3.3,0.6-4.9,0.9c-3.5,0.6-5.9,3.3-5.9,6.9c0,7.2,0,14.4,0,21.7C46.6,73.8,46.6,74,46.7,74.3z"/>
				<path class="st1" d="M45.5,77.2c-2.1,0-4.1-0.3-5.9-0.7c-5.4-1-10.7-2-15.7-2.9c-5.3-0.9-9.4-5.1-10.1-10.3c0,0,0-0.1-0.1-0.2
					l-0.1-0.2v-12l0.1-0.5c0.1-0.3,0.1-0.7,0.2-1c1.5-6.3,7.4-10.2,13.7-9.1c3.8,0.6,7.6,1.3,11.1,2c2.7,0.5,4.8,1.9,6.4,4.2l0,0
					c1.7-2.4,4-3.9,7.2-4.4c2.2-0.4,4.5-0.8,6.7-1.2c1.3-0.2,2.6-0.5,3.9-0.7c3.1-0.6,6.4,0.3,9.1,2.3c2.6,2,4.3,4.9,4.7,8
					c0.1,1.2,0.1,2.4,0.1,3.5v0.9c0,1.9,0,3.9,0,5.8v0.9c0,6-4.1,10.9-10,12c-6,1.1-12,2.2-18,3.3C47.8,77.1,46.6,77.2,45.5,77.2z
					 M14.3,62.9L14.3,62.9c0.1,0.1,0.1,0.2,0.1,0.4c0.7,5.1,4.4,8.9,9.6,9.8c5,0.9,10.3,1.8,15.7,2.9c2.7,0.5,5.8,0.9,9.1,0.4
					c6-1.1,12-2.2,18-3.3c5.7-1,9.5-5.6,9.5-11.5v-0.9c0-1.9,0-3.9,0-5.8c0-0.3,0-0.6,0-0.9c0-1.1,0-2.3-0.1-3.5
					c-0.3-2.9-1.9-5.7-4.4-7.6c-2.5-1.9-5.7-2.7-8.6-2.2c-1.3,0.2-2.6,0.5-3.9,0.7c-2.2,0.4-4.5,0.8-6.7,1.2
					c-3.1,0.5-5.3,1.9-6.9,4.3c0,0.1-0.1,0.1-0.2,0.2l-0.3,0.3L45,47c-0.1-0.1-0.1-0.2-0.2-0.2c-1.5-2.2-3.5-3.5-6-4
					c-3.5-0.7-7.3-1.4-11.1-2c-6.1-1-11.7,2.7-13.1,8.7c-0.1,0.3-0.1,0.7-0.2,1L14.3,51V62.9z M44.3,74.6l-1.6-0.3
					c-0.9-0.1-1.8-0.3-2.7-0.4c-1.9-0.3-3.9-0.7-5.8-1.1c-3.3-0.6-6.6-1.2-10-1.8c-4.7-0.8-8-4.6-8-9.4c0-3.2,0-6.4,0-9.6
					c0-2.8,1.3-5.5,3.3-7.2c2.1-1.8,4.9-2.5,7.7-2c3.7,0.6,7.5,1.3,11.4,2.1c3.2,0.6,5.5,3.5,5.5,6.7c0,4.7,0,9.4,0,14
					c0,2,0,3.9,0,5.9v3.1H44.3z M25.7,43.3c-2.1,0-4.1,0.7-5.7,2c-2,1.6-3.1,4.1-3.1,6.8c0,3.1,0,6.3,0,9.5c0,4.5,3.1,8.1,7.5,8.9
					c3.3,0.6,6.6,1.2,10,1.8c1.9,0.4,3.9,0.7,5.8,1.1c0.9,0.2,1.7,0.3,2.6,0.4l0.9,0.1v-2.5c0-2,0-3.9,0-5.9c0-4.6,0-9.3,0-13.9
					c0-3-2.2-5.6-5.1-6.1c-3.8-0.8-7.7-1.5-11.3-2.1C26.7,43.3,26.2,43.3,25.7,43.3z M46.4,74.6V74c0-0.1,0-0.2,0-0.3v-6.4
					c0-5.1,0-10.2,0-15.3c0-3.7,2.4-6.6,6.1-7.2c1.1-0.2,2.1-0.4,3.2-0.6c0.6-0.1,1.1-0.2,1.7-0.3c0.6-0.1,1.1-0.2,1.7-0.3
					c1.3-0.2,2.7-0.5,4.1-0.7c2.9-0.4,5.6,0.2,7.7,1.9c2,1.6,3.2,4,3.4,6.7c0.2,3.5,0.2,7.1,0,11.2c-0.2,4.2-3.3,7.6-7.7,8.4
					c-5.7,1-11.4,2.1-17.2,3.1l-0.7,0.1c-0.4,0.1-0.8,0.1-1.2,0.2c-0.2,0-0.4,0-0.6,0.1L46.4,74.6z M64.9,43.3c-0.5,0-1.1,0-1.6,0.1
					c-1.4,0.2-2.7,0.5-4,0.7c-0.6,0.1-1.1,0.2-1.7,0.3c-0.6,0.1-1.1,0.2-1.7,0.3c-1.1,0.2-2.1,0.4-3.2,0.6C49.3,45.9,47,48.5,47,52
					c0,5.1,0,10.2,0,15.3v6.4c0,0.1,0,0.2,0,0.3c0.1,0,0.2,0,0.4,0c0.4,0,0.8-0.1,1.2-0.2l0.7-0.1c5.7-1,11.4-2.1,17.2-3.1
					c4.1-0.8,7-3.9,7.2-7.9s0.2-7.7,0-11.1c-0.2-2.6-1.3-4.8-3.2-6.3C68.9,43.9,67,43.3,64.9,43.3z"/>
			</g>
			<g>
				<path class="st1" d="M46.3,14.2c0.9,0.2,1.8,0.3,2.6,0.6c4.6,1.5,7.2,4.7,7.9,9.3c0.6,4-0.4,7.6-3.4,10.4
					c-3.6,3.3-7.8,4-12.3,2.4c-4.4-1.6-6.7-4.9-7.3-9.4c-0.5-3.7,0.5-7,3-9.7c1.9-2,4.2-3.1,6.9-3.4c0.2,0,0.4-0.1,0.6-0.1
					C45,14.2,45.6,14.2,46.3,14.2z M36.3,26c0,5.2,3.9,9.1,9,9.1s9.1-3.9,9.1-9.1s-3.9-9.2-9-9.1C40.1,16.9,36.3,20.8,36.3,26z"/>
				<path class="st1" d="M45.6,38.1c-1.5,0-3-0.3-4.6-0.8c-4.3-1.5-6.8-4.8-7.4-9.7c-0.5-3.8,0.6-7.2,3.1-9.9c1.8-2,4.1-3.1,7.1-3.5
					c0.1,0,0.2,0,0.4-0.1h0.2h2l0,0c0.3,0.1,0.5,0.1,0.8,0.2c0.6,0.1,1.2,0.2,1.8,0.4c4.6,1.5,7.3,4.7,8.1,9.6
					c0.6,4.2-0.6,7.9-3.5,10.6C51.3,36.9,48.5,38.1,45.6,38.1z M44.3,14.5L44.3,14.5c-0.2,0-0.4,0.1-0.5,0.1c-2.8,0.4-5,1.5-6.7,3.3
					c-2.4,2.6-3.4,5.8-2.9,9.5c0.6,4.6,3,7.7,7.1,9.2c4.5,1.6,8.7,0.8,12-2.3c2.8-2.6,3.9-6.1,3.3-10.1c-0.7-4.7-3.3-7.7-7.7-9.1
					c-0.6-0.2-1.2-0.3-1.8-0.4c-0.3,0-0.5-0.1-0.8-0.2C46.3,14.5,44.3,14.5,44.3,14.5z M45.4,35.4C45.3,35.4,45.3,35.4,45.4,35.4
					C40,35.4,36,31.3,36,26c0-2.6,0.9-5,2.7-6.7c1.7-1.7,4.1-2.7,6.7-2.7l0,0c2.5,0,4.9,0.9,6.6,2.7c1.8,1.8,2.7,4.2,2.7,6.8
					s-1,5-2.7,6.8C50.2,34.5,47.9,35.4,45.4,35.4z M36.6,26c0,5,3.8,8.8,8.7,8.8c0,0,0,0,0.1,0c2.4,0,4.5-0.9,6.1-2.5
					c1.7-1.6,2.6-3.9,2.6-6.4s-0.9-4.7-2.6-6.4c-1.6-1.6-3.8-2.5-6.2-2.5s-4.6,0.9-6.3,2.6C37.4,21.3,36.5,23.6,36.6,26L36.6,26z"/>
			</g>
		</g>
	</g>
	<g>
		<g>
			<g>
				<path class="st1" d="M119.4,9.7v16.6c0,0.3,0.3,0.6,0.6,0.6h18.2c0.3,0,0.6,0.3,0.6,0.6v4.6c0,0.3-0.3,0.6-0.6,0.6H120
					c-0.3,0-0.6,0.3-0.6,0.6v17.1c0,0.3,0.3,0.6,0.6,0.6h20.4c0.3,0,0.6,0.3,0.6,0.6v4.6c0,0.3-0.3,0.6-0.6,0.6h-27.3
					c-0.3,0-0.6-0.3-0.6-0.6V4c0-0.3,0.3-0.6,0.6-0.6h27.3c0.3,0,0.6,0.3,0.6,0.6v4.6c0,0.3-0.3,0.6-0.6,0.6H120
					C119.7,9.1,119.4,9.4,119.4,9.7z"/>
			</g>
			<g>
				<path class="st1" d="M151.5,24.3c1.7-3.2,4.1-5.7,7.1-7.5s6.4-2.7,10.1-2.7c3.2,0,6.3,0.7,9,2.2c2.2,1.2,4,2.7,5.4,4.4
					c0.3,0.4,1,0.2,1-0.3V0.8c0-0.3,0.3-0.6,0.6-0.6h5.9c0.3,0,0.6,0.3,0.6,0.6v55.1c0,0.3-0.3,0.6-0.6,0.6h-5.9
					c-0.3,0-0.6-0.3-0.6-0.6v-5.3c0-0.6-0.7-0.8-1-0.3c-1.3,1.8-3,3.3-5,4.5c-2.7,1.6-5.8,2.4-9.4,2.4c-3.7,0-7.1-0.9-10.1-2.7
					s-5.4-4.4-7.1-7.7c-1.7-3.3-2.6-7-2.6-11.2C148.9,31.2,149.7,27.5,151.5,24.3z M182.2,27.3c-1.3-2.3-3-4.1-5.1-5.4
					c-2.2-1.2-4.5-1.9-7.1-1.9s-4.9,0.6-7.1,1.8c-2.1,1.2-3.8,3-5.1,5.3s-1.9,5.1-1.9,8.2c0,3.2,0.6,6,1.9,8.3
					c1.3,2.4,3,4.2,5.1,5.4s4.5,1.9,7.1,1.9s4.9-0.6,7.1-1.9c2.2-1.2,3.9-3,5.1-5.4c1.3-2.4,1.9-5.1,1.9-8.2S183.5,29.7,182.2,27.3z
					"/>
			</g>
			<g>
				<path class="st1" d="M239.7,15.4v40.5c0,0.3-0.3,0.6-0.6,0.6h-5.8c-0.3,0-0.6-0.3-0.6-0.6V52c0-0.5-0.7-0.8-1-0.3
					c-1.2,1.5-2.7,2.7-4.5,3.6c-2.4,1.2-4.9,1.8-7.8,1.8c-3.2,0-6.2-0.7-8.7-2c-2.6-1.3-4.6-3.4-6.1-6c-1.5-2.7-2.2-5.9-2.2-9.8
					V15.4c0-0.3,0.3-0.6,0.6-0.6h5.7c0.3,0,0.6,0.3,0.6,0.6v22.9c0,4.1,1,7.3,3.1,9.5s4.9,3.3,8.5,3.3c3.7,0,6.6-1.1,8.7-3.4
					s3.2-5.6,3.2-9.9V15.4c0-0.3,0.3-0.6,0.6-0.6h5.8C239.4,14.8,239.7,15.1,239.7,15.4z"/>
			</g>
			<g>
				<path class="st1" d="M251.4,24.3c1.7-3.2,4.1-5.7,7.2-7.5s6.6-2.7,10.5-2.7c5.1,0,9.3,1.2,12.6,3.7c3.1,2.3,5.3,5.5,6.4,9.6
					c0.1,0.4-0.2,0.7-0.6,0.7h-6.3c-0.2,0-0.5-0.2-0.5-0.4c-0.7-2.3-2.1-4.2-4-5.6c-2-1.5-4.6-2.2-7.6-2.2c-3.9,0-7.1,1.4-9.6,4.1
					c-2.4,2.7-3.6,6.5-3.6,11.5s1.2,8.9,3.6,11.6c2.4,2.7,5.6,4.1,9.6,4.1c3,0,5.6-0.7,7.6-2.1c1.9-1.3,3.3-3.2,4.1-5.7
					c0.1-0.2,0.3-0.4,0.5-0.4h6.3c0.4,0,0.7,0.4,0.6,0.7c-1.2,3.9-3.3,7.1-6.5,9.5c-3.3,2.6-7.5,3.8-12.5,3.8
					c-3.9,0-7.5-0.9-10.5-2.7c-3.1-1.8-5.5-4.3-7.2-7.5s-2.6-7-2.6-11.4C248.8,31.2,249.7,27.5,251.4,24.3z"/>
			</g>
			<g>
				<path class="st1" d="M334.7,38.2h-32.1c-0.3,0-0.6,0.3-0.6,0.6c0.4,3.8,1.7,6.8,4.2,9c2.6,2.3,5.7,3.5,9.3,3.5
					c3,0,5.5-0.7,7.5-2.1c1.9-1.3,3.3-3.1,4.1-5.2c0.1-0.2,0.3-0.4,0.5-0.4h6.3c0.4,0,0.7,0.4,0.5,0.7c-1.2,3.7-3.3,6.7-6.5,9
					c-3.3,2.5-7.5,3.8-12.5,3.8c-3.9,0-7.5-0.9-10.6-2.7s-5.6-4.3-7.3-7.6c-1.8-3.3-2.7-7-2.7-11.4s0.9-8.1,2.6-11.3
					s4.1-5.7,7.3-7.5c3.1-1.7,6.7-2.6,10.7-2.6c3.9,0,7.4,0.9,10.5,2.6c3,1.7,5.4,4.1,7,7.1s2.5,6.4,2.5,10.2c0,1.2-0.1,2.4-0.2,3.7
					C335.2,38,335,38.2,334.7,38.2z M326.6,25.8c-1.2-1.9-2.7-3.3-4.7-4.3s-4.2-1.5-6.6-1.5c-3.5,0-6.5,1.1-8.9,3.3
					c-2.3,2.1-3.7,5-4.1,8.6c0,0.3,0.2,0.6,0.6,0.6h25c0.3,0,0.6-0.3,0.6-0.6C328.2,29.6,327.6,27.5,326.6,25.8z"/>
			</g>
			<g>
				<path class="st1" d="M403.3,16.1c2.5,1.3,4.5,3.4,6,6c1.5,2.7,2.2,5.9,2.2,9.8v24c0,0.3-0.3,0.6-0.6,0.6h-5.7
					c-0.3,0-0.6-0.3-0.6-0.6v-23c0-4.2-1-7.3-3.1-9.5s-4.8-3.3-8.3-3.3c-3.6,0-6.5,1.2-8.6,3.5s-3.2,5.6-3.2,10V56
					c0,0.3-0.3,0.6-0.6,0.6h-5.7c-0.3,0-0.6-0.3-0.6-0.6V33c0-4.2-1-7.3-3.1-9.5c-2-2.2-4.8-3.3-8.3-3.3c-3.6,0-6.5,1.2-8.6,3.5
					s-3.2,5.6-3.2,10v22.4c0,0.3-0.3,0.6-0.6,0.6h-5.8c-0.3,0-0.6-0.3-0.6-0.6V15.4c0-0.3,0.3-0.6,0.6-0.6h5.8
					c0.3,0,0.6,0.3,0.6,0.6V19c0,0.5,0.7,0.8,1,0.3c1.2-1.5,2.7-2.7,4.5-3.6c2.3-1.2,4.8-1.7,7.6-1.7c3.5,0,6.6,0.8,9.3,2.4
					c2.4,1.4,4.2,3.3,5.5,5.8c0.2,0.4,0.8,0.4,1,0c1.2-2.4,2.9-4.3,5.3-5.7c2.7-1.6,5.7-2.4,9-2.4C397.8,14,400.7,14.7,403.3,16.1z"
					/>
			</g>
			<g>
				<path class="st1" d="M458.3,15.6l-24.6,60.1c-0.1,0.2-0.3,0.4-0.5,0.4h-5.9c-0.4,0-0.7-0.4-0.5-0.8l7.8-19
					c0.1-0.1,0.1-0.3,0-0.4l-16.4-40.2c-0.2-0.4,0.1-0.8,0.5-0.8h6.4c0.2,0,0.4,0.1,0.5,0.4l12.4,32c0.2,0.5,0.9,0.5,1.1,0l12.2-32
					c0.1-0.2,0.3-0.4,0.5-0.4h5.9C458.2,14.8,458.4,15.2,458.3,15.6z"/>
			</g>
		</g>
		<g>
			<path class="st1" d="M113.2,83.4c0.9,0.6,2.3,1,3.7,1c2.1,0,3.3-1.1,3.3-2.7c0-1.5-0.8-2.3-3-3.2c-2.6-0.9-4.2-2.3-4.2-4.5
				c0-2.5,2-4.3,5.1-4.3c1.6,0,2.8,0.4,3.5,0.8l-0.6,1.7c-0.5-0.3-1.6-0.8-3-0.8c-2.2,0-3,1.3-3,2.4c0,1.5,1,2.2,3.2,3.1
				c2.7,1,4.1,2.3,4.1,4.7c0,2.5-1.8,4.6-5.6,4.6c-1.5,0-3.2-0.4-4.1-1L113.2,83.4z"/>
			<path class="st1" d="M139,85.5c-0.5,0.3-1.7,0.7-3.3,0.7c-3.4,0-5.7-2.3-5.7-5.8s2.4-6.1,6.1-6.1c1.2,0,2.3,0.3,2.9,0.6l-0.5,1.6
				c-0.5-0.3-1.3-0.5-2.4-0.5c-2.6,0-4,1.9-4,4.3c0,2.6,1.7,4.3,4,4.3c1.2,0,2-0.3,2.5-0.6L139,85.5z"/>
			<path class="st1" d="M147.2,69.2h2.1v7.1l0,0c0.3-0.6,0.8-1.1,1.5-1.5c0.6-0.4,1.3-0.6,2.1-0.6c1.5,0,4,0.9,4,4.9v6.8h-2.1v-6.6
				c0-1.8-0.7-3.4-2.6-3.4c-1.3,0-2.4,0.9-2.8,2.1c-0.1,0.3-0.1,0.6-0.1,1v6.9h-2.1L147.2,69.2L147.2,69.2z"/>
			<path class="st1" d="M176.3,80.1c0,4.2-2.9,6.1-5.7,6.1c-3.1,0-5.5-2.3-5.5-5.9c0-3.8,2.5-6.1,5.7-6.1
				C174.1,74.2,176.3,76.6,176.3,80.1z M167.2,80.2c0,2.5,1.4,4.4,3.5,4.4c2,0,3.5-1.9,3.5-4.4c0-1.9-1-4.4-3.4-4.4
				C168.3,75.8,167.2,78.1,167.2,80.2z"/>
			<path class="st1" d="M184.6,69.2h2.1v16.7h-2.1V69.2z"/>
			<path class="st1" d="M202.2,85.9l-0.2-1.4l0,0c-0.6,0.9-1.9,1.7-3.5,1.7c-2.3,0-3.5-1.6-3.5-3.3c0-2.8,2.5-4.3,6.9-4.2v-0.2
				c0-0.9-0.3-2.6-2.6-2.6c-1.1,0-2.2,0.3-3,0.8l-0.5-1.4c0.9-0.6,2.3-1,3.7-1c3.5,0,4.3,2.4,4.3,4.7v4.3c0,1,0,2,0.2,2.7
				L202.2,85.9L202.2,85.9z M201.9,80.1c-2.3,0-4.8,0.4-4.8,2.6c0,1.3,0.9,2,2,2c1.5,0,2.4-0.9,2.8-1.9c0.1-0.2,0.1-0.4,0.1-0.7v-2
				H201.9z"/>
			<path class="st1" d="M213,78.1c0-1.3,0-2.5-0.1-3.6h1.8l0.1,2.2h0.1c0.5-1.5,1.8-2.5,3.2-2.5c0.2,0,0.4,0,0.6,0.1v2
				c-0.2,0-0.4-0.1-0.7-0.1c-1.5,0-2.5,1.1-2.8,2.7c0,0.3-0.1,0.6-0.1,1V86h-2v-7.9H213z"/>
			<path class="st1" d="M226.1,83.8c0.6,0.4,1.7,0.8,2.7,0.8c1.5,0,2.2-0.8,2.2-1.7c0-1-0.6-1.5-2.1-2.1c-2.1-0.7-3-1.9-3-3.2
				c0-1.8,1.5-3.3,3.9-3.3c1.2,0,2.2,0.3,2.8,0.7l-0.5,1.5c-0.4-0.3-1.3-0.7-2.3-0.7c-1.2,0-1.9,0.7-1.9,1.6s0.7,1.4,2.2,1.9
				c2,0.8,3,1.7,3,3.4c0,2-1.6,3.4-4.3,3.4c-1.2,0-2.4-0.3-3.2-0.8L226.1,83.8z"/>
			<path class="st1" d="M241.5,69.2h2.1v7.1l0,0c0.3-0.6,0.8-1.1,1.5-1.5c0.6-0.4,1.3-0.6,2.1-0.6c1.5,0,4,0.9,4,4.9v6.8h-2.1v-6.6
				c0-1.8-0.7-3.4-2.6-3.4c-1.3,0-2.4,0.9-2.8,2.1c-0.1,0.3-0.1,0.6-0.1,1v6.9h-2.1L241.5,69.2L241.5,69.2z"/>
			<path class="st1" d="M262.6,71.3c0,0.7-0.5,1.3-1.3,1.3c-0.7,0-1.2-0.6-1.2-1.3c0-0.7,0.5-1.3,1.3-1.3
				C262.1,70,262.6,70.6,262.6,71.3z M260.3,85.9V74.5h2.1v11.4H260.3z"/>
			<path class="st1" d="M271.5,78.2c0-1.5,0-2.6-0.1-3.7h1.9l0.1,2l0,0c0.8-1.4,2.2-2.2,4.1-2.2c2.8,0,4.8,2.3,4.8,5.8
				c0,4.1-2.5,6.1-5.2,6.1c-1.5,0-2.8-0.7-3.5-1.8l0,0v6.2h-2.1L271.5,78.2L271.5,78.2z M273.6,81.3c0,0.3,0,0.6,0.1,0.8
				c0.4,1.4,1.6,2.4,3.1,2.4c2.2,0,3.5-1.8,3.5-4.4c0-2.3-1.2-4.2-3.4-4.2c-1.4,0-2.7,1-3.1,2.6c-0.1,0.3-0.1,0.6-0.1,0.8v2H273.6z"
				/>
		</g>
	</g>
</g>
</svg>
