<?xml version="1.0" encoding="utf-8"?>
<!-- Generator: Adobe Illustrator 24.0.0, SVG Export Plug-In . SVG Version: 6.00 Build 0)  -->
<svg version="1.1" id="Layer_1" xmlns="http://www.w3.org/2000/svg" xmlns:xlink="http://www.w3.org/1999/xlink" x="0px" y="0px"
	 viewBox="0 0 90.6 90.9" style="enable-background:new 0 0 90.6 90.9;" xml:space="preserve">
<style type="text/css">
	.st0{fill:#F15E3B;}
	.st1{fill:#FFFFFF;stroke:#FFFFFF;stroke-width:0.5;stroke-miterlimit:10;}
	.st2{fill:#259D91;}
	.st3{fill:#FFFFFF;}
	.st4{fill:#BE2428;}
	.st5{fill:none;}
	.st6{fill:none;stroke:#000000;stroke-miterlimit:10;}
	.st7{fill:#BE2428;stroke:#000000;stroke-miterlimit:10;}
	.st8{fill:none;stroke:#F1F2F2;stroke-miterlimit:10;}
	.st9{opacity:0.91;}
</style>
<g>
	<g>
		<path class="st0" d="M-3808.6,82.2h-73.8c-1.7,0-3-1.3-3-3V5.3c0-1.7,1.3-3,3-3h73.8c1.7,0,3,1.3,3,3v73.8
			C-3805.6,80.8-3807,82.2-3808.6,82.2z"/>
		<g>
			<path class="st1" d="M-3873.1,47c0.1-0.4,0.2-0.9,0.3-1.3c1.3-5.4,6.4-8.8,11.8-7.9c3.3,0.5,6.5,1.2,9.8,1.8
				c2.3,0.4,4.1,1.7,5.5,3.6c0.1,0.1,0.1,0.2,0.2,0.3c0.1-0.1,0.1-0.1,0.1-0.1c1.5-2.3,3.6-3.5,6.2-3.9c3.1-0.5,6.2-1.1,9.3-1.7
				c5.5-1,11.2,3.2,11.8,8.8c0.1,1.3,0.1,2.6,0.1,3.9c0,2,0,3.9,0,5.9c0,5.2-3.5,9.4-8.6,10.3c-5.3,1-10.5,1.9-15.8,2.9
				c-2.7,0.5-5.4,0.2-8.1-0.3c-4.6-0.9-9.2-1.7-13.9-2.5c-4.6-0.8-8-4.3-8.6-8.9c0-0.1-0.1-0.2-0.1-0.3
				C-3873.1,54-3873.1,50.5-3873.1,47z M-3846.7,67.6c0-0.9,0-1.7,0-2.5c0-5.8,0-11.6,0-17.5c0-2.8-2-5.1-4.7-5.7
				c-3.3-0.7-6.7-1.3-10-1.8c-5-0.8-9.4,2.8-9.4,7.9c0,2.8,0,5.6,0,8.4c0,4.1,2.8,7.3,6.8,8.1c4.6,0.8,9.2,1.7,13.9,2.5
				C-3849,67.2-3847.9,67.4-3846.7,67.6z M-3844.4,67.5c0.6-0.1,1.1-0.1,1.7-0.2c5.3-0.9,10.5-1.9,15.8-2.9c3.6-0.7,6.4-3.5,6.6-7.2
				c0.2-3.3,0.2-6.5,0-9.8c-0.3-5-4.5-8.1-9.4-7.4c-1.7,0.3-3.4,0.6-5.1,0.9c-1.4,0.3-2.9,0.5-4.3,0.8c-3.1,0.5-5.2,2.9-5.2,6.1
				c0,6.4,0,12.7,0,19.1C-3844.4,67.1-3844.4,67.3-3844.4,67.5z"/>
			<path class="st1" d="M-3844.7,14.7c0.8,0.2,1.6,0.3,2.3,0.5c4,1.3,6.3,4.1,6.9,8.2c0.5,3.5-0.3,6.7-3,9.2
				c-3.1,2.9-6.9,3.5-10.9,2.1c-3.8-1.4-5.9-4.3-6.4-8.3c-0.4-3.2,0.4-6.1,2.7-8.6c1.6-1.8,3.7-2.7,6.1-3c0.2,0,0.3-0.1,0.5-0.1
				C-3845.8,14.7-3845.3,14.7-3844.7,14.7z M-3853.5,25c0,4.6,3.4,8,7.9,8c4.5,0,8-3.5,8-8c0-4.6-3.4-8.1-8-8.1
				C-3850.1,17-3853.5,20.5-3853.5,25z"/>
		</g>
	</g>
	<g>
		<g>
			<path class="st2" d="M-3780.3,10.6v14.6c0,0.3,0.2,0.5,0.5,0.5h16c0.3,0,0.5,0.2,0.5,0.5v4c0,0.3-0.2,0.5-0.5,0.5h-16
				c-0.3,0-0.5,0.2-0.5,0.5v15c0,0.3,0.2,0.5,0.5,0.5h18c0.3,0,0.5,0.2,0.5,0.5v4c0,0.3-0.2,0.5-0.5,0.5h-24.1
				c-0.3,0-0.5-0.2-0.5-0.5V5.6c0-0.3,0.2-0.5,0.5-0.5h24.1c0.3,0,0.5,0.2,0.5,0.5v4c0,0.3-0.2,0.5-0.5,0.5h-18
				C-3780.1,10.1-3780.3,10.4-3780.3,10.6z"/>
			<path class="st2" d="M-3752.1,23.5c1.5-2.8,3.6-5,6.3-6.6c2.7-1.6,5.6-2.3,8.9-2.3c2.9,0,5.5,0.7,8,2c1.9,1,3.5,2.3,4.7,3.9
				c0.3,0.4,0.9,0.2,0.9-0.3V2.8c0-0.3,0.2-0.5,0.5-0.5h5.2c0.3,0,0.5,0.2,0.5,0.5v48.5c0,0.3-0.2,0.5-0.5,0.5h-5.2
				c-0.3,0-0.5-0.2-0.5-0.5v-4.7c0-0.5-0.6-0.7-0.9-0.3c-1.1,1.6-2.6,2.9-4.4,4c-2.4,1.4-5.1,2.1-8.3,2.1c-3.3,0-6.2-0.8-8.9-2.4
				c-2.7-1.6-4.7-3.9-6.3-6.8c-1.5-2.9-2.3-6.2-2.3-9.9C-3754.3,29.6-3753.6,26.3-3752.1,23.5z M-3725,26.2c-1.1-2-2.6-3.6-4.5-4.7
				c-1.9-1.1-4-1.6-6.3-1.6c-2.3,0-4.3,0.5-6.2,1.6c-1.9,1.1-3.4,2.6-4.5,4.7c-1.1,2.1-1.7,4.5-1.7,7.2c0,2.8,0.6,5.2,1.7,7.3
				c1.1,2.1,2.6,3.7,4.5,4.7c1.9,1.1,3.9,1.6,6.2,1.6c2.3,0,4.4-0.5,6.3-1.6c1.9-1.1,3.4-2.7,4.5-4.7c1.1-2.1,1.7-4.5,1.7-7.3
				C-3723.3,30.7-3723.9,28.2-3725,26.2z"/>
			<path class="st2" d="M-3674.4,15.7v35.6c0,0.3-0.2,0.5-0.5,0.5h-5.1c-0.3,0-0.5-0.2-0.5-0.5v-3.4c0-0.5-0.6-0.7-0.9-0.3
				c-1.1,1.3-2.4,2.3-4,3.1c-2.1,1-4.4,1.6-6.9,1.6c-2.9,0-5.4-0.6-7.7-1.8c-2.3-1.2-4.1-3-5.4-5.3c-1.3-2.4-2-5.2-2-8.6v-21
				c0-0.3,0.2-0.5,0.5-0.5h5c0.3,0,0.5,0.2,0.5,0.5v20.2c0,3.6,0.9,6.4,2.7,8.3c1.8,1.9,4.3,2.9,7.5,2.9c3.3,0,5.8-1,7.7-3
				c1.9-2,2.8-4.9,2.8-8.8V15.7c0-0.3,0.2-0.5,0.5-0.5h5.1C-3674.6,15.2-3674.4,15.4-3674.4,15.7z"/>
			<path class="st2" d="M-3664.1,23.5c1.5-2.8,3.6-5,6.3-6.6c2.7-1.6,5.8-2.3,9.3-2.3c4.5,0,8.2,1.1,11.1,3.3
				c2.8,2.1,4.6,4.9,5.6,8.5c0.1,0.3-0.2,0.6-0.5,0.6h-5.5c-0.2,0-0.4-0.1-0.5-0.4c-0.7-2.1-1.8-3.7-3.5-4.9c-1.8-1.3-4-1.9-6.7-1.9
				c-3.5,0-6.3,1.2-8.4,3.6c-2.1,2.4-3.2,5.8-3.2,10.1c0,4.4,1.1,7.8,3.2,10.2c2.1,2.4,4.9,3.6,8.4,3.6c2.7,0,4.9-0.6,6.7-1.9
				c1.7-1.2,2.9-2.9,3.6-5c0.1-0.2,0.3-0.4,0.5-0.4h5.5c0.3,0,0.6,0.3,0.5,0.6c-1,3.4-2.9,6.2-5.7,8.3c-2.9,2.3-6.6,3.4-11,3.4
				c-3.5,0-6.6-0.8-9.3-2.3c-2.7-1.6-4.8-3.8-6.3-6.6c-1.5-2.9-2.3-6.2-2.3-10C-3666.3,29.6-3665.6,26.3-3664.1,23.5z"/>
			<path class="st2" d="M-3590.7,35.8h-28.3c-0.3,0-0.5,0.3-0.5,0.6c0.3,3.3,1.5,6,3.7,7.9c2.3,2,5,3,8.2,3c2.6,0,4.8-0.6,6.6-1.8
				c1.7-1.2,2.9-2.7,3.6-4.6c0.1-0.2,0.3-0.3,0.5-0.3h5.5c0.3,0,0.6,0.3,0.5,0.7c-1,3.2-2.9,5.9-5.7,7.9c-2.9,2.2-6.6,3.3-11,3.3
				c-3.5,0-6.6-0.8-9.3-2.3c-2.7-1.6-4.9-3.8-6.5-6.7c-1.6-2.9-2.3-6.2-2.3-10c0-3.8,0.8-7.1,2.3-10c1.5-2.9,3.6-5,6.4-6.6
				c2.7-1.5,5.9-2.3,9.5-2.3c3.5,0,6.6,0.8,9.2,2.3c2.7,1.5,4.7,3.6,6.2,6.3c1.4,2.7,2.2,5.7,2.2,9c0,1-0.1,2.1-0.2,3.2
				C-3590.2,35.6-3590.4,35.8-3590.7,35.8z M-3597.9,24.8c-1-1.7-2.4-2.9-4.2-3.8c-1.8-0.9-3.7-1.3-5.9-1.3c-3.1,0-5.7,1-7.9,2.9
				c-2,1.9-3.3,4.4-3.7,7.6c0,0.3,0.2,0.6,0.5,0.6h22.1c0.3,0,0.5-0.2,0.5-0.5C-3596.4,28.2-3596.9,26.4-3597.9,24.8z"/>
			<path class="st2" d="M-3530.3,16.3c2.2,1.2,4,3,5.3,5.3c1.3,2.4,1.9,5.2,1.9,8.6v21.1c0,0.3-0.2,0.5-0.5,0.5h-5
				c-0.3,0-0.5-0.2-0.5-0.5V31.1c0-3.7-0.9-6.5-2.7-8.4c-1.8-1.9-4.2-2.9-7.3-2.9c-3.2,0-5.7,1-7.6,3c-1.9,2-2.8,5-2.8,8.8v19.7
				c0,0.3-0.2,0.5-0.5,0.5h-5c-0.3,0-0.5-0.2-0.5-0.5V31.1c0-3.7-0.9-6.5-2.7-8.4c-1.8-1.9-4.2-2.9-7.3-2.9c-3.2,0-5.7,1-7.6,3
				s-2.8,5-2.8,8.8v19.7c0,0.3-0.2,0.5-0.5,0.5h-5.1c-0.3,0-0.5-0.2-0.5-0.5V15.7c0-0.3,0.2-0.5,0.5-0.5h5.1c0.3,0,0.5,0.2,0.5,0.5
				v3.2c0,0.5,0.6,0.7,0.9,0.3c1.1-1.3,2.4-2.4,4-3.2c2-1,4.3-1.5,6.7-1.5c3.1,0,5.8,0.7,8.2,2.1c2.1,1.2,3.7,2.9,4.8,5.1
				c0.2,0.4,0.7,0.3,0.9,0c1-2.1,2.6-3.8,4.7-5.1c2.4-1.4,5-2.1,7.9-2.1C-3535.1,14.5-3532.6,15.1-3530.3,16.3z"/>
			<path class="st2" d="M-3481.9,15.9l-21.7,52.9c-0.1,0.2-0.3,0.3-0.5,0.3h-5.2c-0.4,0-0.6-0.4-0.5-0.7l6.9-16.8c0-0.1,0-0.3,0-0.4
				l-14.4-35.4c-0.1-0.3,0.1-0.7,0.5-0.7h5.7c0.2,0,0.4,0.1,0.5,0.3l10.9,28.2c0.2,0.4,0.8,0.4,0.9,0l10.8-28.2
				c0.1-0.2,0.3-0.3,0.5-0.3h5.2C-3482,15.2-3481.7,15.5-3481.9,15.9z"/>
		</g>
		<g>
			
				<text transform="matrix(1 0 0 1 -3787.1013 77.7807)" style="font-family:'SatoshiVariable-Regular'; font-size:20.7482px; letter-spacing:5;">Scholarship</text>
		</g>
	</g>
</g>
<g>
	<g>
		<g>
			<path class="st0" d="M-2591.6,61.4h-73.8c-1.7,0-3-1.3-3-3v-73.8c0-1.7,1.3-3,3-3h73.8c1.7,0,3,1.3,3,3v73.8
				C-2588.6,60-2589.9,61.4-2591.6,61.4z"/>
		</g>
		<g>
			<g>
				<path class="st3" d="M-2656.1,26.2c0.1-0.4,0.2-0.9,0.3-1.3c1.3-5.4,6.4-8.8,11.8-7.9c3.3,0.5,6.5,1.2,9.8,1.8
					c2.3,0.4,4.1,1.7,5.5,3.6c0.1,0.1,0.1,0.2,0.2,0.3c0.1-0.1,0.1-0.1,0.1-0.1c1.5-2.3,3.6-3.5,6.2-3.9c3.1-0.5,6.2-1.1,9.3-1.7
					c5.5-1,11.2,3.2,11.8,8.8c0.1,1.3,0.1,2.6,0.1,3.9c0,2,0,3.9,0,5.9c0,5.2-3.5,9.4-8.6,10.3c-5.3,1-10.5,1.9-15.8,2.9
					c-2.7,0.5-5.4,0.2-8.1-0.3c-4.6-0.9-9.2-1.7-13.9-2.5c-4.6-0.8-8-4.3-8.6-8.9c0-0.1-0.1-0.2-0.1-0.3
					C-2656.1,33.3-2656.1,29.7-2656.1,26.2z M-2629.7,46.8c0-0.9,0-1.7,0-2.5c0-5.8,0-11.6,0-17.5c0-2.8-2-5.1-4.7-5.7
					c-3.3-0.7-6.7-1.3-10-1.8c-5-0.8-9.4,2.8-9.4,7.9c0,2.8,0,5.6,0,8.4c0,4.1,2.8,7.3,6.8,8.1c4.6,0.8,9.2,1.7,13.9,2.5
					C-2632,46.4-2630.9,46.6-2629.7,46.8z M-2627.3,46.8c0.6-0.1,1.1-0.1,1.7-0.2c5.3-0.9,10.5-1.9,15.8-2.9
					c3.6-0.7,6.4-3.5,6.6-7.2c0.2-3.3,0.2-6.5,0-9.8c-0.3-5-4.5-8.1-9.4-7.4c-1.7,0.3-3.4,0.6-5.1,0.9c-1.4,0.3-2.9,0.5-4.3,0.8
					c-3.1,0.5-5.2,2.9-5.2,6.1c0,6.4,0,12.7,0,19.1C-2627.3,46.4-2627.3,46.5-2627.3,46.8z"/>
				<path class="st3" d="M-2628.3,49.3c-1.9,0-3.6-0.3-5.2-0.6c-4.8-0.9-9.5-1.8-13.9-2.5c-4.7-0.8-8.2-4.5-8.9-9.1c0,0,0-0.1,0-0.1
					l0-0.2l0-10.6l0.1-0.4c0.1-0.3,0.1-0.6,0.2-0.9c1.3-5.5,6.5-9,12.1-8.1c3.4,0.6,6.7,1.2,9.8,1.8c2.4,0.4,4.3,1.7,5.6,3.7
					c0,0,0,0,0,0c1.5-2.2,3.5-3.4,6.3-3.9c2-0.3,4-0.7,5.9-1.1c1.1-0.2,2.3-0.4,3.4-0.6c2.7-0.5,5.6,0.2,8,2c2.3,1.7,3.8,4.3,4.1,7
					c0.1,1,0.1,2.1,0.1,3.1l0,0.8c0,1.7,0,3.4,0,5.1l0,0.8c0,5.3-3.6,9.6-8.8,10.6c-5.3,1-10.5,1.9-15.8,2.9
					C-2626.3,49.2-2627.3,49.3-2628.3,49.3z M-2655.8,36.7L-2655.8,36.7c0,0.1,0.1,0.2,0.1,0.3c0.6,4.5,3.9,7.9,8.4,8.7
					c4.4,0.8,9.1,1.6,13.9,2.5c2.4,0.4,5.1,0.8,8,0.3c5.3-0.9,10.6-1.9,15.8-2.9c5-0.9,8.4-5,8.4-10.1l0-0.8c0-1.7,0-3.4,0-5.1
					c0-0.3,0-0.6,0-0.8c0-1,0-2.1-0.1-3.1c-0.3-2.6-1.7-5-3.9-6.7c-2.2-1.7-5-2.4-7.6-1.9c-1.1,0.2-2.3,0.4-3.4,0.6
					c-1.9,0.4-3.9,0.7-5.9,1.1c-2.7,0.4-4.7,1.7-6,3.8c0,0.1-0.1,0.1-0.1,0.1l-0.3,0.2l-0.2-0.3c-0.1-0.1-0.1-0.1-0.2-0.2
					c-1.3-1.9-3.1-3.1-5.3-3.5c-3.1-0.6-6.4-1.2-9.8-1.8c-5.3-0.9-10.3,2.4-11.5,7.7c-0.1,0.3-0.1,0.6-0.2,0.9l-0.1,0.4V36.7z
					 M-2629.4,47.1l-1.4-0.2c-0.8-0.1-1.6-0.3-2.3-0.4c-1.7-0.3-3.4-0.6-5.1-0.9c-2.9-0.5-5.8-1.1-8.8-1.6c-4.2-0.7-7-4.1-7.1-8.3
					c0-2.8,0-5.7,0-8.4c0-2.5,1.1-4.8,2.9-6.4c1.8-1.5,4.3-2.2,6.8-1.8c3.3,0.5,6.6,1.1,10,1.8c2.8,0.6,4.8,3,4.9,5.9
					c0,4.1,0,8.3,0,12.3c0,1.7,0,3.4,0,5.2V47.1z M-2645.8,19.5c-1.9,0-3.6,0.6-5,1.8c-1.7,1.5-2.7,3.6-2.8,6c0,2.7,0,5.6,0,8.4
					c0,4,2.7,7.1,6.6,7.8c2.9,0.5,5.8,1.1,8.8,1.6c1.7,0.3,3.4,0.6,5.1,0.9c0.8,0.1,1.5,0.3,2.3,0.4l0.8,0.1v-2.2c0-1.7,0-3.4,0-5.2
					c0-4,0-8.2,0-12.3c0-2.6-1.9-4.9-4.5-5.4c-3.4-0.7-6.7-1.3-10-1.8C-2644.9,19.5-2645.3,19.5-2645.8,19.5z M-2627.6,47l0-0.5
					c0-0.1,0-0.2,0-0.3l0-5.6c0-4.5,0-9,0-13.4c0-3.3,2.1-5.8,5.4-6.4c0.9-0.2,1.9-0.3,2.8-0.5c0.5-0.1,1-0.2,1.5-0.3
					c0.5-0.1,1-0.2,1.5-0.3c1.2-0.2,2.4-0.4,3.6-0.6c2.5-0.4,4.9,0.2,6.7,1.7c1.8,1.4,2.8,3.5,3,5.9c0.2,3,0.2,6.3,0,9.8
					c-0.2,3.7-2.9,6.7-6.8,7.4c-5,0.9-10.1,1.8-15.1,2.7l-0.7,0.1c-0.4,0.1-0.7,0.1-1.1,0.2c-0.2,0-0.4,0-0.6,0.1L-2627.6,47z
					 M-2611.3,19.5c-0.5,0-0.9,0-1.4,0.1c-1.2,0.2-2.4,0.4-3.6,0.6c-0.5,0.1-1,0.2-1.5,0.3c-0.5,0.1-1,0.2-1.5,0.3
					c-0.9,0.2-1.9,0.4-2.8,0.5c-3,0.5-5,2.8-5,5.9c0,4.5,0,9,0,13.4l0,5.6c0,0.1,0,0.2,0,0.2c0.1,0,0.2,0,0.3,0
					c0.4,0,0.7-0.1,1.1-0.1l0.7-0.1c5-0.9,10.1-1.8,15.1-2.7c3.6-0.7,6.2-3.5,6.4-6.9c0.2-3.5,0.2-6.7,0-9.8
					c-0.1-2.3-1.1-4.2-2.8-5.6C-2607.7,20-2609.4,19.5-2611.3,19.5z"/>
			</g>
			<g>
				<path class="st3" d="M-2627.6-6.1c0.8,0.2,1.6,0.3,2.3,0.5c4,1.3,6.3,4.1,6.9,8.2c0.5,3.5-0.3,6.7-3,9.2
					c-3.1,2.9-6.9,3.5-10.9,2.1c-3.8-1.4-5.9-4.3-6.4-8.3c-0.4-3.2,0.4-6.1,2.7-8.6c1.6-1.8,3.7-2.7,6.1-3c0.2,0,0.3-0.1,0.5-0.1
					C-2628.8-6.1-2628.2-6.1-2627.6-6.1z M-2636.5,4.3c0,4.6,3.4,8,7.9,8c4.5,0,8-3.5,8-8c0-4.6-3.4-8.1-8-8.1
					C-2633.1-3.8-2636.5-0.3-2636.5,4.3z"/>
				<path class="st3" d="M-2628.3,14.9c-1.3,0-2.7-0.2-4.1-0.7c-3.8-1.4-6-4.2-6.6-8.5c-0.4-3.4,0.5-6.3,2.7-8.8
					c1.6-1.7,3.6-2.7,6.2-3.1c0.1,0,0.2,0,0.3-0.1l0.2,0l1.8,0l0,0c0.2,0.1,0.5,0.1,0.7,0.1c0.5,0.1,1.1,0.2,1.6,0.4
					c4.1,1.3,6.5,4.1,7.1,8.4c0.6,3.7-0.5,7-3,9.4C-2623.3,13.9-2625.7,14.9-2628.3,14.9z M-2629.4-5.9l-0.1,0
					c-0.1,0-0.2,0.1-0.4,0.1c-2.5,0.3-4.4,1.3-5.9,2.9c-2.1,2.3-3,5.1-2.6,8.3c0.5,4.1,2.6,6.8,6.2,8.1c4,1.4,7.7,0.7,10.6-2.1
					c2.4-2.3,3.4-5.4,2.9-8.9c-0.6-4.1-2.9-6.8-6.8-8c-0.5-0.2-1-0.3-1.5-0.4c-0.2,0-0.5-0.1-0.7-0.1H-2629.4z M-2628.5,12.5
					C-2628.5,12.5-2628.5,12.5-2628.5,12.5c-4.7,0-8.2-3.6-8.3-8.3c0-2.3,0.8-4.4,2.3-5.9c1.5-1.5,3.6-2.4,5.9-2.4c0,0,0,0,0,0
					c2.2,0,4.3,0.8,5.8,2.3c1.5,1.5,2.4,3.7,2.4,6c0,2.3-0.9,4.4-2.4,6C-2624.2,11.7-2626.3,12.5-2628.5,12.5z M-2636.2,4.3
					c0,4.4,3.3,7.8,7.7,7.8c0,0,0,0,0.1,0c2.1,0,4-0.8,5.4-2.2c1.5-1.5,2.3-3.4,2.3-5.6c0-2.2-0.8-4.2-2.2-5.6
					c-1.4-1.4-3.4-2.2-5.5-2.2c-2.1,0-4.1,0.8-5.5,2.2C-2635.4,0.1-2636.2,2.1-2636.2,4.3L-2636.2,4.3z"/>
			</g>
		</g>
	</g>
	<g>
		<g>
			<g>
				<path class="st2" d="M-2563.2-10.1V4.5c0,0.3,0.2,0.5,0.5,0.5h16c0.3,0,0.5,0.2,0.5,0.5v4c0,0.3-0.2,0.5-0.5,0.5h-16
					c-0.3,0-0.5,0.2-0.5,0.5v15c0,0.3,0.2,0.5,0.5,0.5h18c0.3,0,0.5,0.2,0.5,0.5v4c0,0.3-0.2,0.5-0.5,0.5h-24.1
					c-0.3,0-0.5-0.2-0.5-0.5v-45.7c0-0.3,0.2-0.5,0.5-0.5h24.1c0.3,0,0.5,0.2,0.5,0.5v4c0,0.3-0.2,0.5-0.5,0.5h-18
					C-2563-10.6-2563.2-10.4-2563.2-10.1z"/>
			</g>
			<g>
				<path class="st2" d="M-2535,2.7c1.5-2.8,3.6-5,6.3-6.6c2.7-1.6,5.6-2.3,8.9-2.3c2.9,0,5.5,0.7,8,2c1.9,1,3.5,2.3,4.7,3.9
					c0.3,0.4,0.9,0.2,0.9-0.3v-17.3c0-0.3,0.2-0.5,0.5-0.5h5.2c0.3,0,0.5,0.2,0.5,0.5v48.5c0,0.3-0.2,0.5-0.5,0.5h-5.2
					c-0.3,0-0.5-0.2-0.5-0.5v-4.7c0-0.5-0.6-0.7-0.9-0.3c-1.1,1.6-2.6,2.9-4.4,4c-2.4,1.4-5.1,2.1-8.3,2.1c-3.3,0-6.2-0.8-8.9-2.4
					c-2.7-1.6-4.7-3.9-6.3-6.8s-2.3-6.2-2.3-9.9C-2537.3,8.8-2536.5,5.5-2535,2.7z M-2507.9,5.4c-1.1-2-2.6-3.6-4.5-4.7
					c-1.9-1.1-4-1.6-6.3-1.6c-2.3,0-4.3,0.5-6.2,1.6c-1.9,1.1-3.4,2.6-4.5,4.7c-1.1,2.1-1.7,4.5-1.7,7.2c0,2.8,0.6,5.2,1.7,7.3
					c1.1,2.1,2.6,3.7,4.5,4.7c1.9,1.1,3.9,1.6,6.2,1.6c2.3,0,4.4-0.5,6.3-1.6c1.9-1.1,3.4-2.7,4.5-4.7c1.1-2.1,1.7-4.5,1.7-7.3
					S-2506.8,7.5-2507.9,5.4z"/>
			</g>
			<g>
				<path class="st2" d="M-2457.3-5.1v35.6c0,0.3-0.2,0.5-0.5,0.5h-5.1c-0.3,0-0.5-0.2-0.5-0.5v-3.4c0-0.5-0.6-0.7-0.9-0.3
					c-1.1,1.3-2.4,2.3-4,3.1c-2.1,1-4.4,1.6-6.9,1.6c-2.9,0-5.4-0.6-7.7-1.8c-2.3-1.2-4.1-3-5.4-5.3c-1.3-2.4-2-5.2-2-8.6v-21
					c0-0.3,0.2-0.5,0.5-0.5h5c0.3,0,0.5,0.2,0.5,0.5v20.2c0,3.6,0.9,6.4,2.7,8.3c1.8,1.9,4.3,2.9,7.5,2.9c3.3,0,5.8-1,7.7-3
					s2.8-4.9,2.8-8.8V-5.1c0-0.3,0.2-0.5,0.5-0.5h5.1C-2457.5-5.6-2457.3-5.4-2457.3-5.1z"/>
			</g>
			<g>
				<path class="st2" d="M-2447,2.7c1.5-2.8,3.6-5,6.3-6.6c2.7-1.6,5.8-2.3,9.3-2.3c4.5,0,8.2,1.1,11.1,3.3c2.8,2.1,4.6,4.9,5.6,8.5
					c0.1,0.3-0.2,0.6-0.5,0.6h-5.5c-0.2,0-0.4-0.1-0.5-0.4c-0.7-2.1-1.8-3.7-3.5-4.9c-1.8-1.3-4-1.9-6.7-1.9c-3.5,0-6.3,1.2-8.4,3.6
					c-2.1,2.4-3.2,5.8-3.2,10.1c0,4.4,1.1,7.8,3.2,10.2c2.1,2.4,4.9,3.6,8.4,3.6c2.7,0,4.9-0.6,6.7-1.9c1.7-1.2,2.9-2.9,3.6-5
					c0.1-0.2,0.3-0.4,0.5-0.4h5.5c0.3,0,0.6,0.3,0.5,0.6c-1,3.4-2.9,6.2-5.7,8.3c-2.9,2.3-6.6,3.4-11,3.4c-3.5,0-6.6-0.8-9.3-2.3
					c-2.7-1.6-4.8-3.8-6.3-6.6c-1.5-2.9-2.3-6.2-2.3-10C-2449.3,8.9-2448.5,5.5-2447,2.7z"/>
			</g>
			<g>
				<path class="st2" d="M-2373.7,15h-28.3c-0.3,0-0.5,0.3-0.5,0.6c0.3,3.3,1.5,6,3.7,7.9c2.3,2,5,3,8.2,3c2.6,0,4.8-0.6,6.6-1.8
					c1.7-1.2,2.9-2.7,3.6-4.6c0.1-0.2,0.3-0.3,0.5-0.3h5.5c0.3,0,0.6,0.3,0.5,0.7c-1,3.2-2.9,5.9-5.7,7.9c-2.9,2.2-6.6,3.3-11,3.3
					c-3.5,0-6.6-0.8-9.3-2.3c-2.7-1.6-4.9-3.8-6.5-6.7s-2.3-6.2-2.3-10s0.8-7.1,2.3-10c1.5-2.9,3.6-5,6.4-6.6
					c2.7-1.5,5.9-2.3,9.5-2.3c3.5,0,6.6,0.8,9.2,2.3c2.7,1.5,4.7,3.6,6.2,6.3c1.4,2.7,2.2,5.7,2.2,9c0,1-0.1,2.1-0.2,3.2
					C-2373.2,14.8-2373.4,15-2373.7,15z M-2380.8,4.1c-1-1.7-2.4-2.9-4.2-3.8c-1.8-0.9-3.7-1.3-5.9-1.3c-3.1,0-5.7,1-7.9,2.9
					c-2,1.9-3.3,4.4-3.7,7.6c0,0.3,0.2,0.6,0.5,0.6h22.1c0.3,0,0.5-0.2,0.5-0.5C-2379.4,7.4-2379.9,5.6-2380.8,4.1z"/>
			</g>
			<g>
				<path class="st2" d="M-2313.3-4.5c2.2,1.2,4,3,5.3,5.3c1.3,2.4,1.9,5.2,1.9,8.6v21.1c0,0.3-0.2,0.5-0.5,0.5h-5
					c-0.3,0-0.5-0.2-0.5-0.5V10.3c0-3.7-0.9-6.5-2.7-8.4c-1.8-1.9-4.2-2.9-7.3-2.9c-3.2,0-5.7,1-7.6,3c-1.9,2-2.8,5-2.8,8.8v19.7
					c0,0.3-0.2,0.5-0.5,0.5h-5c-0.3,0-0.5-0.2-0.5-0.5V10.3c0-3.7-0.9-6.5-2.7-8.4c-1.8-1.9-4.2-2.9-7.3-2.9c-3.2,0-5.7,1-7.6,3
					c-1.9,2-2.8,5-2.8,8.8v19.7c0,0.3-0.2,0.5-0.5,0.5h-5.1c-0.3,0-0.5-0.2-0.5-0.5V-5.1c0-0.3,0.2-0.5,0.5-0.5h5.1
					c0.3,0,0.5,0.2,0.5,0.5v3.2c0,0.5,0.6,0.7,0.9,0.3c1.1-1.3,2.4-2.4,4-3.2c2-1,4.3-1.5,6.7-1.5c3.1,0,5.8,0.7,8.2,2.1
					c2.1,1.2,3.7,2.9,4.8,5.1c0.2,0.4,0.7,0.3,0.9,0c1-2.1,2.6-3.8,4.7-5.1c2.4-1.4,5-2.1,7.9-2.1C-2318-6.3-2315.5-5.7-2313.3-4.5z
					"/>
			</g>
			<g>
				<path class="st2" d="M-2264.8-4.9l-21.7,52.9c-0.1,0.2-0.3,0.3-0.5,0.3h-5.2c-0.4,0-0.6-0.4-0.5-0.7l6.9-16.8c0-0.1,0-0.3,0-0.4
					l-14.4-35.4c-0.1-0.3,0.1-0.7,0.5-0.7h5.7c0.2,0,0.4,0.1,0.5,0.3l10.9,28.2c0.2,0.4,0.8,0.4,0.9,0l10.8-28.2
					c0.1-0.2,0.3-0.3,0.5-0.3h5.2C-2264.9-5.6-2264.7-5.2-2264.8-4.9z"/>
			</g>
		</g>
		<g>
			<path d="M-2568.7,54.8c0.8,0.5,2,0.9,3.2,0.9c1.8,0,2.9-1,2.9-2.4c0-1.3-0.7-2.1-2.6-2.8c-2.3-0.8-3.7-2-3.7-4
				c0-2.2,1.8-3.8,4.5-3.8c1.4,0,2.5,0.3,3.1,0.7l-0.5,1.5c-0.5-0.2-1.4-0.7-2.7-0.7c-1.9,0-2.6,1.1-2.6,2.1c0,1.3,0.9,2,2.8,2.7
				c2.4,0.9,3.6,2.1,3.6,4.1c0,2.2-1.6,4-4.9,4c-1.3,0-2.8-0.4-3.6-0.9L-2568.7,54.8z"/>
			<path d="M-2546,56.6c-0.5,0.3-1.5,0.6-2.9,0.6c-3,0-5-2.1-5-5.1c0-3.1,2.1-5.3,5.4-5.3c1.1,0,2,0.3,2.5,0.5l-0.4,1.4
				c-0.4-0.2-1.1-0.5-2.1-0.5c-2.3,0-3.5,1.7-3.5,3.8c0,2.3,1.5,3.8,3.5,3.8c1,0,1.7-0.3,2.2-0.5L-2546,56.6z"/>
			<path d="M-2538.8,42.3h1.8v6.3h0c0.3-0.5,0.7-1,1.3-1.3c0.5-0.3,1.2-0.5,1.9-0.5c1.3,0,3.5,0.8,3.5,4.3v6h-1.8v-5.8
				c0-1.6-0.6-3-2.3-3c-1.2,0-2.1,0.8-2.4,1.8c-0.1,0.2-0.1,0.5-0.1,0.9V57h-1.8V42.3z"/>
			<path d="M-2513.2,51.9c0,3.7-2.6,5.3-5,5.3c-2.7,0-4.8-2-4.8-5.2c0-3.4,2.2-5.3,5-5.3C-2515.1,46.7-2513.2,48.8-2513.2,51.9z
				 M-2521.1,52c0,2.2,1.3,3.9,3.1,3.9c1.7,0,3.1-1.6,3.1-3.9c0-1.7-0.9-3.9-3-3.9S-2521.1,50.1-2521.1,52z"/>
			<path d="M-2505.8,42.3h1.8V57h-1.8V42.3z"/>
			<path d="M-2490.3,57l-0.1-1.3h-0.1c-0.6,0.8-1.6,1.5-3.1,1.5c-2,0-3.1-1.4-3.1-2.9c0-2.4,2.2-3.8,6-3.7v-0.2
				c0-0.8-0.2-2.3-2.3-2.3c-0.9,0-1.9,0.3-2.6,0.7l-0.4-1.2c0.8-0.5,2-0.9,3.3-0.9c3.1,0,3.8,2.1,3.8,4.1v3.8c0,0.9,0,1.7,0.2,2.4
				H-2490.3z M-2490.6,51.9c-2,0-4.3,0.3-4.3,2.3c0,1.2,0.8,1.7,1.7,1.7c1.3,0,2.1-0.8,2.4-1.7c0.1-0.2,0.1-0.4,0.1-0.6V51.9z"/>
			<path d="M-2480.8,50.1c0-1.2,0-2.2-0.1-3.1h1.6l0.1,2h0.1c0.5-1.3,1.6-2.2,2.8-2.2c0.2,0,0.4,0,0.5,0.1v1.7
				c-0.2,0-0.4-0.1-0.6-0.1c-1.3,0-2.2,1-2.4,2.3c0,0.2-0.1,0.5-0.1,0.9V57h-1.8V50.1z"/>
			<path d="M-2469.3,55.1c0.5,0.4,1.5,0.7,2.4,0.7c1.3,0,2-0.7,2-1.5c0-0.9-0.5-1.3-1.9-1.8c-1.8-0.6-2.7-1.6-2.7-2.8
				c0-1.6,1.3-2.9,3.5-2.9c1,0,1.9,0.3,2.5,0.6l-0.5,1.3c-0.4-0.2-1.1-0.6-2.1-0.6c-1.1,0-1.7,0.6-1.7,1.4c0,0.8,0.6,1.2,1.9,1.7
				c1.7,0.7,2.6,1.5,2.6,3c0,1.8-1.4,3-3.8,3c-1.1,0-2.1-0.3-2.8-0.7L-2469.3,55.1z"/>
			<path d="M-2455.7,42.3h1.8v6.3h0c0.3-0.5,0.7-1,1.3-1.3c0.5-0.3,1.2-0.5,1.9-0.5c1.3,0,3.5,0.8,3.5,4.3v6h-1.8v-5.8
				c0-1.6-0.6-3-2.3-3c-1.2,0-2.1,0.8-2.4,1.8c-0.1,0.2-0.1,0.5-0.1,0.9V57h-1.8V42.3z"/>
			<path d="M-2437.2,44.1c0,0.6-0.4,1.1-1.2,1.1c-0.6,0-1.1-0.5-1.1-1.1c0-0.6,0.5-1.1,1.1-1.1C-2437.6,43-2437.2,43.5-2437.2,44.1z
				 M-2439.2,57V47h1.8v10H-2439.2z"/>
			<path d="M-2429.3,50.2c0-1.3,0-2.3-0.1-3.3h1.6l0.1,1.7h0c0.7-1.2,1.9-2,3.6-2c2.4,0,4.3,2.1,4.3,5.1c0,3.6-2.2,5.4-4.6,5.4
				c-1.3,0-2.5-0.6-3.1-1.6h0v5.5h-1.8V50.2z M-2427.5,52.9c0,0.3,0,0.5,0.1,0.7c0.3,1.3,1.4,2.1,2.7,2.1c1.9,0,3.1-1.6,3.1-3.9
				c0-2-1.1-3.7-3-3.7c-1.2,0-2.4,0.9-2.8,2.3c-0.1,0.2-0.1,0.5-0.1,0.7V52.9z"/>
		</g>
	</g>
</g>
<image style="overflow:visible;" width="500" height="500" xlink:href="B1DA557A.jpg"  transform="matrix(1 0 0 1 -4624.0259 47.0631)">
</image>
<polygon class="st4" points="-4484.8,384.5 -4485,385.1 -4485,384.4 "/>
<line class="st5" x1="-4479.1" y1="332.8" x2="-4479.1" y2="326"/>
<line class="st5" x1="-4454.5" y1="334" x2="-4479.1" y2="326"/>
<g>
	<g>
		<g>
			<polygon points="-2071.1,14.7 -2126.1,-5 -2070.2,-24.8 -2012.7,-4.6 			"/>
		</g>
		<g>
			<polyline points="-2061.7,26.7 -2061.7,57.1 -2067.6,55.2 -2067.6,55.2 -2069.4,54.6 -2080.9,51 -2087.3,48.9 -2100.6,44.6 
				-2100.7,44.6 -2101.5,44.4 -2107.6,42.4 -2109.2,43 -2109.2,34.2 -2109.1,34.1 -2109.2,34.1 -2109.2,8.3 -2101.5,10.8 
				-2101.5,36.5 -2095.8,38.4 -2088.9,40.6 -2075.6,44.9 -2075.6,44.9 -2069.4,46.8 -2069.4,47 -2069.1,46.9 -2069.4,46.8 
				-2069.4,20.5 -2061.7,17.9 -2057.1,16.3 -2029.6,6.9 -2029.6,15.7 -2057,25.1 			"/>
		</g>
		<g>
			<polygon class="st0" points="-2029.6,20.3 -2029.6,29.1 -2036.8,31.6 -2036.8,31.6 -2057.1,38.6 -2057.1,29.7 -2050.1,27.3 			
				"/>
		</g>
		<g>
			<polygon class="st0" points="-2029.6,33.9 -2029.6,42.2 -2055.8,51.2 -2055.8,51.2 -2057.1,50.8 -2057.1,42.8 -2030.3,33.6 
				-2030.3,33.6 			"/>
		</g>
	</g>
</g>
<g>
	<polyline class="st6" points="-4838.7,454.9 -4838.7,458.2 -4838.7,464.7 -4838.7,466.1 	"/>
	<line class="st6" x1="-4838.7" y1="448.4" x2="-4838.7" y2="448.3"/>
	<line class="st6" x1="-4838.7" y1="429.5" x2="-4838.7" y2="412.6"/>
	<polyline class="st6" points="-4833,455.9 -4833,456.3 -4833,462.7 -4833,465.8 -4833,466.1 	"/>
	<line class="st6" x1="-4833" y1="431.3" x2="-4833" y2="412.6"/>
	<polyline class="st6" points="-4809.6,466.1 -4809.6,464.3 -4809.6,463.4 	"/>
	<line class="st6" x1="-4809.6" y1="438.4" x2="-4809.6" y2="412.6"/>
	<line class="st6" x1="-4803.9" y1="436.5" x2="-4803.9" y2="412.6"/>
	<line class="st6" x1="-4780.4" y1="438.2" x2="-4780.4" y2="434.9"/>
	<line class="st6" x1="-4780.4" y1="466.1" x2="-4780.4" y2="454.3"/>
	<polyline class="st6" points="-4780.4,448.2 -4780.4,447.8 -4780.4,444.7 	"/>
	<line class="st6" x1="-4780.4" y1="428.4" x2="-4780.4" y2="412.6"/>
	<polyline class="st6" points="-4800.6,441.7 -4800.6,441.8 -4800.6,445.2 	"/>
	<polyline class="st6" points="-4800.6,466.1 -4800.6,461.2 -4800.6,460.6 	"/>
	<line class="st6" x1="-4800.6" y1="454.7" x2="-4800.6" y2="451.6"/>
	<line class="st6" x1="-4800.6" y1="435.4" x2="-4800.6" y2="412.6"/>
	<polyline class="st6" points="-4838.7,454 -4847.2,451.3 -4866.4,445.1 	"/>
	<line class="st6" x1="-4776.4" y1="468.3" x2="-4799.6" y2="460.9"/>
	<line class="st6" x1="-4800.6" y1="460.6" x2="-4803.9" y2="459.5"/>
	<line class="st6" x1="-4838.7" y1="448.3" x2="-4863.5" y2="440.4"/>
	<polyline class="st6" points="-4833,431.3 -4810.2,438.6 -4809.6,438.8 	"/>
	<line class="st6" x1="-4781" y1="448" x2="-4785.7" y2="446.5"/>
	<line class="st6" x1="-4776.4" y1="449.5" x2="-4780.4" y2="448.2"/>
	<line class="st6" x1="-4795.4" y1="443.4" x2="-4800.5" y2="441.8"/>
	<line class="st6" x1="-4838.7" y1="429.5" x2="-4863.5" y2="421.5"/>
	<polyline class="st6" points="-4833,446.5 -4810.2,438.6 -4809.6,438.4 	"/>
	<line class="st6" x1="-4731.3" y1="411.6" x2="-4780.4" y2="428.4"/>
	<polyline class="st6" points="-4838.7,448.4 -4847.2,451.3 -4863.2,456.8 	"/>
	<line class="st6" x1="-4809.6" y1="444.9" x2="-4828.8" y2="451.5"/>
	<polyline class="st6" points="-4803.9,443 -4800.6,441.8 -4800.5,441.8 	"/>
	<line class="st6" x1="-4726.5" y1="416.4" x2="-4780.4" y2="434.9"/>
	<line class="st6" x1="-4838.7" y1="454.9" x2="-4858.3" y2="461.6"/>
	<line class="st6" x1="-4800.6" y1="445.2" x2="-4803.9" y2="446.3"/>
	<line class="st6" x1="-4729.7" y1="420.8" x2="-4780.4" y2="438.2"/>
	<line class="st6" x1="-4809.6" y1="448.2" x2="-4823.8" y2="453.1"/>
	<polyline class="st6" points="-4832.4,456.1 -4833,456.3 -4838.7,458.2 -4861.6,466.1 	"/>
	<line class="st6" x1="-4800.6" y1="451.6" x2="-4803.9" y2="452.8"/>
	<line class="st6" x1="-4724.9" y1="425.7" x2="-4780.4" y2="444.7"/>
	<line class="st6" x1="-4809.6" y1="454.7" x2="-4814.1" y2="456.2"/>
	<polyline class="st6" points="-4822.7,459.2 -4833,462.7 -4838.7,464.7 -4856.8,470.9 	"/>
	<line class="st6" x1="-4800.6" y1="454.7" x2="-4803.9" y2="455.9"/>
	<polyline class="st6" points="-4781,448 -4780.4,447.8 -4728.9,430.1 	"/>
	<polyline class="st6" points="-4818,460.7 -4833,465.8 -4860.7,475.3 	"/>
	<polyline class="st6" points="-4803.9,462.3 -4800.6,461.2 -4799.6,460.9 	"/>
	<line class="st6" x1="-4724.1" y1="435" x2="-4780.4" y2="454.3"/>
	<polyline class="st6" points="-4808.2,463.8 -4809.6,464.3 -4855.9,480.2 	"/>
</g>
<polygon class="st7" points="-4774.5,378.8 -4774.6,379.5 -4774.6,378.8 "/>
<line class="st6" x1="-4803.5" y1="267.8" x2="-4803.5" y2="321.2"/>
<line class="st6" x1="-4797.9" y1="267.8" x2="-4797.9" y2="321.2"/>
<line class="st6" x1="-4774.4" y1="267.8" x2="-4774.4" y2="321.2"/>
<line class="st6" x1="-4768.8" y1="267.8" x2="-4768.8" y2="321.2"/>
<line class="st6" x1="-4745.3" y1="267.8" x2="-4745.3" y2="321.2"/>
<line class="st6" x1="-4765.4" y1="267.8" x2="-4765.4" y2="321.2"/>
<line class="st6" x1="-4831.3" y1="300.3" x2="-4744.1" y2="328.3"/>
<line class="st6" x1="-4828.4" y1="295.5" x2="-4741.2" y2="323.5"/>
<line class="st6" x1="-4828" y1="312" x2="-4696.1" y2="266.8"/>
<line class="st6" x1="-4823.2" y1="316.8" x2="-4691.3" y2="271.6"/>
<line class="st6" x1="-4826.4" y1="321.2" x2="-4694.5" y2="276"/>
<line class="st6" x1="-4821.6" y1="326" x2="-4689.7" y2="280.8"/>
<line class="st6" x1="-4825.6" y1="330.5" x2="-4693.7" y2="285.3"/>
<line class="st6" x1="-4820.8" y1="335.3" x2="-4688.9" y2="290.1"/>
<g>
	<text transform="matrix(1 0 0 1 -2008.4749 35.3938)"><tspan x="0" y="0" style="font-family:'Manrope-Bold'; font-size:52.4047px;">Edu</tspan><tspan x="95.8" y="0" class="st0" style="font-family:'Manrope-Bold'; font-size:52.4047px;">cemy</tspan></text>
	
		<text transform="matrix(1 0 0 1 -2005.4524 52.8781)" style="fill:#6D6E71; font-family:'Manrope-Regular'; font-size:16.6797px; letter-spacing:3;">Scholarship Abroad</text>
</g>
<line class="st8" x1="-2213" y1="-255.4" x2="-2213" y2="326.2"/>
<text transform="matrix(1 0 0 1 -2537.2505 227.674)" style="fill:#A7A9AC; font-family:'Manrope-Bold'; font-size:24px;">Before</text>
<text transform="matrix(1 0 0 1 -1952.8622 227.674)" style="fill:#A7A9AC; font-family:'Manrope-Bold'; font-size:24px;">After</text>
<g>
	<defs>
		<rect id="SVGID_1_" x="-1462.3" y="-317.3" width="1080" height="720"/>
	</defs>
	<clipPath id="SVGID_2_">
		<use xlink:href="#SVGID_1_"  style="overflow:visible;"/>
	</clipPath>
	<g transform="matrix(1 0 0 1 0 0)" style="clip-path:url(#SVGID_2_);">
		
			<image style="overflow:visible;" width="1466" height="1161" xlink:href="B1DA557E.jpg"  transform="matrix(0.7753 0 0 0.7753 -1490.6534 -464.5653)">
		</image>
	</g>
</g>
<rect x="-1462.3" y="-317.3" class="st9" width="1080" height="720"/>
<g>
	<g>
		<g>
			<g>
				<polygon class="st3" points="-1041.8,41.3 -1096.8,21.5 -1040.9,1.7 -983.4,22 				"/>
			</g>
			<g>
				<polyline class="st3" points="-1032.4,53.3 -1032.4,83.7 -1038.3,81.8 -1038.3,81.8 -1040.1,81.2 -1051.6,77.5 -1058,75.5 
					-1071.3,71.2 -1071.3,71.2 -1072.2,70.9 -1078.2,69 -1079.9,69.5 -1079.9,60.7 -1079.8,60.7 -1079.9,60.6 -1079.9,34.9 
					-1072.2,37.3 -1072.2,63.1 -1066.4,64.9 -1059.6,67.1 -1046.3,71.4 -1046.2,71.4 -1040.1,73.4 -1040.1,73.6 -1039.8,73.5 
					-1040.1,73.4 -1040.1,47.1 -1032.4,44.4 -1027.8,42.9 -1000.2,33.4 -1000.2,42.2 -1027.6,51.6 				"/>
			</g>
			<g>
				<polygon class="st0" points="-1000.2,46.8 -1000.2,55.6 -1007.4,58.1 -1007.5,58.1 -1027.8,65.1 -1027.8,56.3 -1020.8,53.8 				
					"/>
			</g>
			<g>
				<polygon class="st0" points="-1000.2,60.4 -1000.2,68.7 -1026.5,77.8 -1026.5,77.8 -1027.8,77.3 -1027.8,69.4 -1001,60.2 
					-1001,60.2 				"/>
			</g>
		</g>
	</g>
	<g>
		<text transform="matrix(1 0 0 1 -979.1486 61.9424)"><tspan x="0" y="0" class="st3" style="font-family:'Manrope-Bold'; font-size:52.4047px;">Edu</tspan><tspan x="95.8" y="0" class="st0" style="font-family:'Manrope-Bold'; font-size:52.4047px;">cemy</tspan></text>
		
			<text transform="matrix(1 0 0 1 -976.1262 79.4268)" style="fill:#F1F2F2; font-family:'Manrope-Regular'; font-size:16.6797px; letter-spacing:3;">Scholarship Abroad</text>
	</g>
</g>
<g>
	<g>
		<path class="st0" d="M87.2,90.9H3.4c-1.9,0-3.4-1.5-3.4-3.4V3.7c0-1.9,1.5-3.4,3.4-3.4h83.8c1.9,0,3.4,1.5,3.4,3.4v83.8
			C90.6,89.4,89.1,90.9,87.2,90.9z"/>
	</g>
	<g>
		<g>
			<path class="st3" d="M14,51c0.1-0.5,0.2-1,0.3-1.5c1.5-6.1,7.2-10,13.4-8.9c3.7,0.6,7.4,1.3,11.1,2c2.6,0.5,4.7,1.9,6.2,4.1
				c0.1,0.1,0.2,0.2,0.3,0.3c0.1-0.1,0.1-0.1,0.2-0.1c1.7-2.6,4.1-3.9,7.1-4.4c3.5-0.6,7.1-1.3,10.6-1.9c6.3-1.1,12.7,3.6,13.4,10
				c0.2,1.5,0.1,3,0.1,4.5c0,2.2,0,4.4,0,6.7c0,5.9-4,10.7-9.8,11.7c-6,1.1-12,2.2-18,3.3c-3.1,0.6-6.2,0.2-9.2-0.4
				c-5.2-1-10.5-2-15.7-2.9c-5.2-0.9-9.1-4.9-9.8-10.1c0-0.1-0.1-0.2-0.1-0.3C14,58.9,14,55,14,51z M44,74.3c0-1.1,0-2,0-2.8
				c0-6.6,0-13.2,0-19.8c0-3.1-2.2-5.8-5.3-6.4c-3.8-0.8-7.6-1.5-11.4-2.1c-5.7-0.9-10.6,3.2-10.7,9c0,3.2,0,6.4,0,9.5
				c0.1,4.7,3.2,8.3,7.8,9.1c5.3,0.9,10.5,1.9,15.7,2.9C41.4,73.9,42.6,74.1,44,74.3z M46.7,74.3c0.7-0.1,1.3-0.1,1.9-0.2
				c6-1.1,11.9-2.1,17.9-3.2c4.1-0.8,7.2-4,7.5-8.1c0.2-3.7,0.3-7.4,0-11.1c-0.4-5.6-5.1-9.2-10.7-8.4c-1.9,0.3-3.8,0.7-5.8,1
				c-1.6,0.3-3.3,0.6-4.9,0.9c-3.5,0.6-5.9,3.3-5.9,6.9c0,7.2,0,14.4,0,21.7C46.6,73.8,46.6,74,46.7,74.3z"/>
			<path class="st3" d="M45.5,77.2c-2.1,0-4.1-0.3-5.9-0.7c-5.4-1-10.7-2-15.7-2.9c-5.3-0.9-9.4-5.1-10.1-10.3c0,0,0-0.1-0.1-0.2
				l-0.1-0.2l0-12l0.1-0.5c0.1-0.3,0.1-0.7,0.2-1c1.5-6.3,7.4-10.2,13.7-9.1c3.8,0.6,7.6,1.3,11.1,2c2.7,0.5,4.8,1.9,6.4,4.2
				c0,0,0,0,0,0c1.7-2.4,4-3.9,7.2-4.4c2.2-0.4,4.5-0.8,6.7-1.2c1.3-0.2,2.6-0.5,3.9-0.7c3.1-0.6,6.4,0.3,9.1,2.3
				c2.6,2,4.3,4.9,4.7,8c0.1,1.2,0.1,2.4,0.1,3.5l0,0.9c0,1.9,0,3.9,0,5.8l0,0.9c0,6-4.1,10.9-10,12c-6,1.1-12,2.2-18,3.3
				C47.8,77.1,46.6,77.2,45.5,77.2z M14.3,62.9L14.3,62.9c0.1,0.1,0.1,0.2,0.1,0.4c0.7,5.1,4.4,8.9,9.6,9.8c5,0.9,10.3,1.8,15.7,2.9
				c2.7,0.5,5.8,0.9,9.1,0.4c6-1.1,12-2.2,18-3.3c5.7-1,9.5-5.6,9.5-11.5l0-0.9c0-1.9,0-3.9,0-5.8c0-0.3,0-0.6,0-0.9
				c0-1.1,0-2.3-0.1-3.5c-0.3-2.9-1.9-5.7-4.4-7.6c-2.5-1.9-5.7-2.7-8.6-2.2c-1.3,0.2-2.6,0.5-3.9,0.7c-2.2,0.4-4.5,0.8-6.7,1.2
				c-3.1,0.5-5.3,1.9-6.9,4.3c0,0.1-0.1,0.1-0.2,0.2l-0.3,0.3L45,47c-0.1-0.1-0.1-0.2-0.2-0.2c-1.5-2.2-3.5-3.5-6-4
				c-3.5-0.7-7.3-1.4-11.1-2c-6.1-1-11.7,2.7-13.1,8.7c-0.1,0.3-0.1,0.7-0.2,1L14.3,51V62.9z M44.3,74.6l-1.6-0.3
				c-0.9-0.1-1.8-0.3-2.7-0.4c-1.9-0.3-3.9-0.7-5.8-1.1c-3.3-0.6-6.6-1.2-10-1.8c-4.7-0.8-8-4.6-8-9.4c0-3.2,0-6.4,0-9.6
				c0-2.8,1.3-5.5,3.3-7.2c2.1-1.8,4.9-2.5,7.7-2c3.7,0.6,7.5,1.3,11.4,2.1c3.2,0.6,5.5,3.5,5.5,6.7c0,4.7,0,9.4,0,14
				c0,2,0,3.9,0,5.9V74.6z M25.7,43.3c-2.1,0-4.1,0.7-5.7,2c-2,1.6-3.1,4.1-3.1,6.8c0,3.1,0,6.3,0,9.5c0,4.5,3.1,8.1,7.5,8.9
				c3.3,0.6,6.6,1.2,10,1.8c1.9,0.4,3.9,0.7,5.8,1.1c0.9,0.2,1.7,0.3,2.6,0.4l0.9,0.1v-2.5c0-2,0-3.9,0-5.9c0-4.6,0-9.3,0-13.9
				c0-3-2.2-5.6-5.1-6.1c-3.8-0.8-7.7-1.5-11.3-2.1C26.7,43.3,26.2,43.3,25.7,43.3z M46.4,74.6l0-0.6c0-0.1,0-0.2,0-0.3l0-6.4
				c0-5.1,0-10.2,0-15.3c0-3.7,2.4-6.6,6.1-7.2c1.1-0.2,2.1-0.4,3.2-0.6c0.6-0.1,1.1-0.2,1.7-0.3c0.6-0.1,1.1-0.2,1.7-0.3
				c1.3-0.2,2.7-0.5,4.1-0.7c2.9-0.4,5.6,0.2,7.7,1.9c2,1.6,3.2,4,3.4,6.7c0.2,3.5,0.2,7.1,0,11.2c-0.2,4.2-3.3,7.6-7.7,8.4
				c-5.7,1-11.4,2.1-17.2,3.1l-0.7,0.1c-0.4,0.1-0.8,0.1-1.2,0.2c-0.2,0-0.4,0-0.6,0.1L46.4,74.6z M64.9,43.3c-0.5,0-1.1,0-1.6,0.1
				c-1.4,0.2-2.7,0.5-4,0.7c-0.6,0.1-1.1,0.2-1.7,0.3c-0.6,0.1-1.1,0.2-1.7,0.3c-1.1,0.2-2.1,0.4-3.2,0.6c-3.4,0.6-5.7,3.2-5.7,6.7
				c0,5.1,0,10.2,0,15.3l0,6.4c0,0.1,0,0.2,0,0.3c0.1,0,0.2,0,0.4,0c0.4,0,0.8-0.1,1.2-0.2l0.7-0.1c5.7-1,11.4-2.1,17.2-3.1
				c4.1-0.8,7-3.9,7.2-7.9c0.2-4,0.2-7.7,0-11.1c-0.2-2.6-1.3-4.8-3.2-6.3C68.9,43.9,67,43.3,64.9,43.3z"/>
		</g>
		<g>
			<path class="st3" d="M46.3,14.2c0.9,0.2,1.8,0.3,2.6,0.6c4.6,1.5,7.2,4.7,7.9,9.3c0.6,4-0.4,7.6-3.4,10.4
				c-3.6,3.3-7.8,4-12.3,2.4c-4.4-1.6-6.7-4.9-7.3-9.4c-0.5-3.7,0.5-7,3-9.7c1.9-2,4.2-3.1,6.9-3.4c0.2,0,0.4-0.1,0.6-0.1
				C45,14.2,45.6,14.2,46.3,14.2z M36.3,26c0,5.2,3.9,9.1,9,9.1c5.1,0,9.1-3.9,9.1-9.1c0-5.2-3.9-9.2-9-9.1
				C40.1,16.9,36.3,20.8,36.3,26z"/>
			<path class="st3" d="M45.6,38.1c-1.5,0-3-0.3-4.6-0.8c-4.3-1.5-6.8-4.8-7.4-9.7c-0.5-3.8,0.6-7.2,3.1-9.9c1.8-2,4.1-3.1,7.1-3.5
				c0.1,0,0.2,0,0.4-0.1l0.2,0l2,0l0,0c0.3,0.1,0.5,0.1,0.8,0.2c0.6,0.1,1.2,0.2,1.8,0.4c4.6,1.5,7.3,4.7,8.1,9.6
				c0.6,4.2-0.6,7.9-3.5,10.6C51.3,36.9,48.5,38.1,45.6,38.1z M44.3,14.5l-0.1,0c-0.1,0-0.3,0.1-0.4,0.1c-2.8,0.4-5,1.5-6.7,3.3
				c-2.4,2.6-3.4,5.8-2.9,9.5c0.6,4.6,3,7.7,7.1,9.2c4.5,1.6,8.7,0.8,12-2.3c2.8-2.6,3.9-6.1,3.3-10.1c-0.7-4.7-3.3-7.7-7.7-9.1
				c-0.6-0.2-1.2-0.3-1.8-0.4c-0.3,0-0.5-0.1-0.8-0.2H44.3z M45.4,35.4C45.3,35.4,45.3,35.4,45.4,35.4C40,35.4,36,31.3,36,26
				c0-2.6,0.9-5,2.7-6.7c1.7-1.7,4.1-2.7,6.7-2.7c0,0,0,0,0,0c2.5,0,4.9,0.9,6.6,2.7c1.8,1.8,2.7,4.2,2.7,6.8c0,2.6-1,5-2.7,6.8
				C50.2,34.5,47.9,35.4,45.4,35.4z M36.6,26c0,5,3.8,8.8,8.7,8.8c0,0,0,0,0.1,0c2.4,0,4.5-0.9,6.1-2.5c1.7-1.6,2.6-3.9,2.6-6.4
				c0-2.5-0.9-4.7-2.6-6.4c-1.6-1.6-3.8-2.5-6.2-2.5c-2.4,0-4.6,0.9-6.3,2.6C37.4,21.3,36.5,23.6,36.6,26L36.6,26z"/>
		</g>
	</g>
</g>
</svg>
